<svg width="517" height="431" viewBox="0 0 517 431" fill="none" xmlns="http://www.w3.org/2000/svg">
<path d="M242.52 308.95C178.087 308.95 117.481 299.358 71.8672 281.942C25.645 264.294 0.189453 240.587 0.189453 215.188C0.189453 189.788 25.645 166.082 71.8672 148.434C117.481 131.018 178.087 121.426 242.52 121.426C306.952 121.426 367.557 131.018 413.172 148.434C459.394 166.082 484.849 189.789 484.849 215.188C484.849 240.586 459.394 264.294 413.172 281.942C367.557 299.358 306.952 308.95 242.52 308.95ZM242.52 125.426C178.562 125.426 118.464 134.924 73.2939 152.17C28.7309 169.186 4.18945 191.565 4.18945 215.188C4.18945 238.81 28.7309 261.19 73.2939 278.205C118.464 295.452 178.562 304.95 242.52 304.95C306.477 304.95 366.575 295.452 411.745 278.205C456.308 261.19 480.849 238.811 480.849 215.188C480.849 191.564 456.308 169.186 411.745 152.17C366.575 134.924 306.476 125.426 242.52 125.426Z" fill="#61DAFB"/>
<path d="M342.642 430.377C322.618 430.377 297.657 418.804 270.035 396.355C232.144 365.56 193.535 317.869 161.319 262.07C129.103 206.27 107.107 148.987 99.3826 100.776C91.5554 51.9221 99.3586 18.0236 121.355 5.3244C143.351 -7.37433 176.61 2.81708 215.004 34.0217C252.895 64.8171 291.504 112.507 323.72 168.307C355.936 224.107 377.932 281.389 385.656 329.601C393.484 378.454 385.68 412.353 363.684 425.053C357.513 428.615 350.451 430.377 342.642 430.377ZM142.504 3.96845C135.365 3.96845 128.942 5.5622 123.355 8.78827C102.897 20.5998 95.7859 53.0431 103.332 100.143C110.981 147.885 132.805 204.681 164.783 260.07C196.761 315.457 235.036 362.755 272.557 393.25C309.574 423.336 341.228 433.402 361.684 421.588C382.142 409.777 389.253 377.333 381.707 330.234C374.058 282.491 352.234 225.695 320.256 170.307C288.278 114.919 250.003 67.6213 212.481 37.1262C185.575 15.258 161.503 3.96845 142.504 3.96845Z" fill="#61DAFB"/>
<path d="M142.397 430.378C134.585 430.378 127.528 428.617 121.355 425.054C99.3586 412.353 91.5554 378.455 99.3826 329.602C107.107 281.39 129.103 224.107 161.319 168.308C193.535 112.508 232.144 64.8178 270.035 34.0224C308.429 2.81731 341.689 -7.37507 363.684 5.32512C385.68 18.0243 393.484 51.9228 385.656 100.777C377.932 148.988 355.936 206.27 323.72 262.07C291.504 317.87 252.895 365.56 215.004 396.355C187.385 418.804 162.42 430.378 142.397 430.378ZM342.535 3.96917C323.535 3.96917 299.466 15.2573 272.557 37.1269C235.036 67.622 196.761 114.92 164.783 170.308C132.805 225.696 110.981 282.492 103.332 330.234C95.7859 377.334 102.897 409.777 123.355 421.589C128.941 424.814 135.367 426.408 142.504 426.409C161.504 426.411 185.573 415.121 212.481 393.251C250.003 362.756 288.278 315.458 320.256 260.07C352.234 204.682 374.058 147.886 381.707 100.144C389.253 53.0439 382.142 20.6005 361.684 8.78899C356.098 5.56389 349.672 3.96917 342.535 3.96917Z" fill="#61DAFB"/>
<path d="M242.519 259.976C267.255 259.976 287.308 239.923 287.308 215.187C287.308 190.451 267.255 170.398 242.519 170.398C217.783 170.398 197.73 190.451 197.73 215.187C197.73 239.923 217.783 259.976 242.519 259.976Z" fill="#61DAFB"/>
<path d="M515.784 338.788C514.94 337.364 511.288 338.888 510.616 337.596C509.947 336.309 513.341 334.348 515.279 329.867C515.629 329.059 517.832 323.966 516.201 322.395C513.109 319.417 498.962 331.708 494.01 327.685C492.924 326.803 492.165 325.041 488.876 322.18C487.568 321.041 486.777 320.528 486.011 320.719C484.925 320.99 484.839 322.444 483.674 325.303C481.927 329.59 480.894 329.331 479.876 332.752C479.12 335.291 479.293 336.767 478.403 337.055C477.145 337.462 475.987 334.769 474.392 335.01C472.765 335.256 471.782 338.392 471.471 340.74C470.888 345.146 472.506 348.053 473.403 351.11C474.377 354.433 474.956 359.485 472.705 366.638L450.428 429.404C455.346 416.525 469.586 381.219 475.57 368.099C477.297 364.311 479.205 360.47 483.121 358.953C486.891 357.494 492.07 358.365 498.671 356.775C499.442 356.589 501.582 356.045 501.851 354.786C502.074 353.746 500.815 353.165 501.009 352.191C501.268 350.884 503.743 350.868 506.784 349.36C508.928 348.297 510.264 347.032 511.413 345.945C511.759 345.617 516.908 340.683 515.784 338.788Z" fill="#005FFF"/>
<path d="M428.14 371.83C427.198 371.834 426.892 374.066 426.064 374.023C425.239 373.98 425.255 371.748 423.616 369.504C423.32 369.099 421.456 366.548 420.214 366.896C417.861 367.554 419.811 378.044 416.408 379.313C415.662 379.592 414.578 379.456 412.225 380.245C411.289 380.559 410.808 380.799 410.681 381.229C410.501 381.841 411.189 382.303 412.256 383.699C413.857 385.794 413.431 386.226 414.817 387.713C415.845 388.816 416.619 389.157 416.504 389.677C416.34 390.412 414.684 390.203 414.343 391.055C413.994 391.925 415.249 393.313 416.312 394.143C418.306 395.7 420.2 395.745 421.959 396.187C423.871 396.667 426.518 397.841 429.379 401.009L453.757 430.053C448.855 423.923 435.636 406.747 430.923 400.025C429.562 398.084 428.227 396.04 428.613 393.68C428.984 391.408 430.906 389.118 432.03 385.419C432.162 384.987 432.512 383.78 431.972 383.285C431.525 382.875 430.877 383.325 430.455 382.949C429.888 382.445 430.594 381.226 430.732 379.298C430.829 377.939 430.593 376.918 430.391 376.04C430.33 375.776 429.394 371.825 428.14 371.83Z" fill="#005FFF"/>
<path d="M446.939 376.052L446.371 370.984L446.63 370.6C447.831 368.823 448.443 367.088 448.45 365.441C448.451 365.179 448.439 364.918 448.427 364.651C448.378 363.594 448.317 362.28 449.002 360.748C449.386 359.893 450.465 357.916 452.088 358.161C452.525 358.222 452.855 358.423 453.106 358.658C453.143 358.599 453.18 358.54 453.221 358.477C453.726 357.706 454.126 357.375 454.512 357.057C454.808 356.812 455.114 356.56 455.593 355.963C455.804 355.701 455.968 355.471 456.106 355.278C456.526 354.693 457.074 353.996 458.041 354.008C459.073 354.057 459.614 354.911 459.973 355.476C460.613 356.485 460.903 357.211 461.095 357.693C461.164 357.87 461.244 358.068 461.284 358.129C461.617 358.618 464.323 358.161 465.342 357.994C467.631 357.613 469.612 357.282 470.428 358.726C471.013 359.759 470.579 361.124 469.098 362.894C468.637 363.444 468.146 363.863 467.711 364.191C468.072 364.406 468.395 364.737 468.526 365.255C468.834 366.484 467.778 367.715 465.388 368.919C464.795 369.22 463.996 369.621 462.876 369.814C462.349 369.905 461.874 369.927 461.468 369.939C461.459 370.174 461.404 370.429 461.261 370.691C460.841 371.461 459.968 371.828 458.651 371.74C457.202 371.665 456.009 371.388 454.957 371.146C454.038 370.935 453.246 370.757 452.625 370.798C451.472 370.891 450.584 371.814 449.541 373.011L446.939 376.052Z" fill="#005FFF"/>
<path d="M449.572 345.876L444.814 347.711L444.377 347.557C442.354 346.847 440.52 346.695 438.925 347.106C438.671 347.171 438.421 347.249 438.166 347.329C437.156 347.644 435.901 348.037 434.245 347.763C433.321 347.608 431.135 347.065 430.96 345.434C430.908 344.996 431.019 344.625 431.182 344.323C431.116 344.302 431.05 344.281 430.978 344.258C430.104 343.964 429.683 343.661 429.278 343.369C428.966 343.145 428.644 342.913 427.945 342.6C427.638 342.463 427.374 342.363 427.152 342.278C426.48 342.021 425.666 341.667 425.433 340.729C425.218 339.718 425.907 338.978 426.363 338.488C427.176 337.613 427.806 337.148 428.223 336.84C428.376 336.728 428.548 336.601 428.597 336.546C428.986 336.1 427.857 333.599 427.437 332.655C426.487 330.538 425.665 328.705 426.855 327.55C427.705 326.722 429.136 326.796 431.223 327.779C431.873 328.086 432.402 328.454 432.83 328.792C432.947 328.389 433.184 327.992 433.653 327.734C434.763 327.124 436.222 327.833 437.992 329.839C438.434 330.337 439.025 331.008 439.496 332.042C439.717 332.529 439.859 332.983 439.974 333.373C440.203 333.322 440.463 333.31 440.753 333.382C441.605 333.593 442.182 334.345 442.431 335.641C442.725 337.061 442.76 338.285 442.792 339.365C442.822 340.307 442.85 341.118 443.048 341.709C443.43 342.8 444.548 343.425 445.97 344.13L449.572 345.876Z" fill="#005FFF"/>
<path d="M446.939 330.943L446.371 325.875L446.63 325.491C447.831 323.714 448.443 321.979 448.45 320.332C448.451 320.07 448.439 319.808 448.427 319.542C448.378 318.484 448.317 317.17 449.002 315.638C449.386 314.784 450.465 312.807 452.088 313.052C452.525 313.113 452.855 313.313 453.106 313.548C453.143 313.49 453.18 313.431 453.221 313.367C453.726 312.596 454.126 312.266 454.512 311.948C454.808 311.703 455.114 311.451 455.593 310.854C455.804 310.592 455.968 310.362 456.106 310.169C456.526 309.584 457.074 308.886 458.041 308.899C459.073 308.948 459.614 309.802 459.973 310.367C460.613 311.375 460.903 312.102 461.095 312.584C461.164 312.76 461.244 312.959 461.284 313.02C461.617 313.509 464.323 313.051 465.342 312.885C467.631 312.503 469.612 312.173 470.428 313.617C471.013 314.65 470.579 316.015 469.098 317.784C468.637 318.335 468.146 318.753 467.711 319.081C468.072 319.297 468.395 319.627 468.526 320.146C468.834 321.374 467.778 322.605 465.388 323.809C464.795 324.11 463.996 324.512 462.876 324.705C462.349 324.796 461.874 324.818 461.468 324.83C461.459 325.065 461.404 325.319 461.261 325.581C460.841 326.352 459.968 326.719 458.651 326.631C457.202 326.555 456.009 326.279 454.957 326.036C454.038 325.826 453.246 325.647 452.625 325.689C451.472 325.782 450.584 326.704 449.541 327.901L446.939 330.943Z" fill="#005FFF"/>
<path d="M452.125 429.32L451.063 428.654L449.825 428.796C449.805 428.681 449.738 428.417 449.636 428.003C449.082 425.737 447.392 418.841 445.983 407.98C444.999 400.399 444.442 392.604 444.327 384.81C444.212 377.003 444.582 371.093 444.878 366.343C445.102 362.76 445.373 359.349 445.64 356.026C446.35 347.147 447.019 338.761 446.521 329.476C446.411 327.403 446.18 323.089 443.659 318.498C442.197 315.835 440.183 313.471 437.672 311.474L439.233 309.512C442.005 311.719 444.233 314.338 445.857 317.294C448.651 322.384 448.903 327.085 449.024 329.344C449.531 338.793 448.854 347.26 448.137 356.224C447.873 359.535 447.601 362.932 447.379 366.5C447.085 371.206 446.719 377.064 446.833 384.771C446.946 392.472 447.496 400.171 448.467 407.657C449.859 418.381 451.524 425.174 452.071 427.406C452.362 428.598 452.424 428.847 452.125 429.32Z" fill="#005FFF"/>
<path d="M433.075 315.458C432.972 315.458 432.868 315.455 432.763 315.448C430.629 315.333 428.653 314.056 426.889 311.652C426.061 310.522 425.638 309.232 424.794 306.66C424.663 306.264 424.027 304.252 423.64 301.484C423.387 299.676 423.418 298.92 423.777 298.251C424.175 297.508 424.818 296.989 425.543 296.639C425.511 296.399 425.536 296.152 425.641 295.9C426.068 294.855 427.203 294.992 427.817 295.058C428.128 295.097 428.516 295.148 428.934 295.126C429.593 295.095 429.946 294.899 430.482 294.605C430.995 294.324 431.632 293.974 432.578 293.78C434.443 293.391 436.006 293.92 436.521 294.094C439.231 294.997 440.567 297.104 442.114 299.544C442.422 300.033 443.481 301.815 444.179 304.257C444.683 306.019 444.612 306.802 444.461 307.384C444.152 308.581 443.424 309.266 441.575 310.779C439.645 312.362 438.676 313.155 437.843 313.637C435.907 314.755 434.69 315.458 433.075 315.458Z" fill="#005FFF"/>
</svg>
