<svg width="30" height="31" viewBox="0 0 30 31" fill="none" xmlns="http://www.w3.org/2000/svg">
<path d="M14.9499 30.5209C23.1127 30.5209 29.7299 23.9037 29.7299 15.7409C29.7299 7.57817 23.1127 0.960938 14.9499 0.960938C6.78715 0.960938 0.169922 7.57817 0.169922 15.7409C0.169922 23.9037 6.78715 30.5209 14.9499 30.5209Z" fill="#EEEFF0"/>
<path d="M14.9505 22.4595C18.6618 22.4595 21.6705 19.4509 21.6705 15.7395C21.6705 12.0282 18.6618 9.01953 14.9505 9.01953C11.2391 9.01953 8.23047 12.0282 8.23047 15.7395C8.23047 19.4509 11.2391 22.4595 14.9505 22.4595Z" fill="#373E46"/>
<path d="M12.2599 14.3987C13 14.3987 13.5999 13.7988 13.5999 13.0587C13.5999 12.3187 13 11.7188 12.2599 11.7188C11.5199 11.7188 10.9199 12.3187 10.9199 13.0587C10.9199 13.7988 11.5199 14.3987 12.2599 14.3987Z" fill="white"/>
</svg>
