<svg width="65" height="68" viewBox="0 0 65 68" fill="none" xmlns="http://www.w3.org/2000/svg">
<rect x="0.566225" y="14.2028" width="12" height="31.8397" transform="rotate(-4.98661 0.566225 14.2028)" fill="#020202"/>
<path d="M63.5 67C37.9 54.2 26.1667 20 23.5 4.5C23.5 1.16667 24.8 -2.5 30 9.5C32.5 30 50 50.5 53.5 55C57 59.5 63.5 62.5 63.5 67Z" fill="black" stroke="black"/>
<path d="M58 51.5C53.6 48.3 44.8333 26.5 41 16C45.1667 13.5 53.4 9.4 53 13C52.6 16.6 60.1667 32.1667 64 39.5C63.8333 44.8333 62.4 54.7 58 51.5Z" fill="black" stroke="black"/>
</svg>
