<svg width="55" height="44" viewBox="0 0 55 44" fill="none" xmlns="http://www.w3.org/2000/svg">
<path d="M51.5 35.5C51.3333 38 49.3 43 42.5 43C34 43 26 37 24 32.5C22 28 6.5 21 4.5 18.5C2.5 16 -2.38419e-07 9.5 4.5 9.5C5.21485 9.5 6.15682 9.73974 7.24373 10.139C4.20384 8.58227 1.94174 7.23624 1.5 6.5C-1.43051e-06 4 4 2 7 3C7.35486 3.11829 7.91961 3.34152 8.64127 3.64238C7.45664 2.93832 6.81857 2.36286 7 2C8 -1.90735e-06 15.5 0.999998 19 1.5C21.8 1.9 28.8333 6 32 8C37 7.16667 47.2 6 48 8C49 10.5 54 20 53.5 23.5C53 27 54.5 32 53 33C51.8 33.8 51.5 35 51.5 35.5Z" fill="white" stroke="black"/>
<path d="M41.5 27.5C39.5 27 38.5 25.5 37.5 22L38.5 21C39.3333 21.1667 41.1 21.6 41.5 22C42 22.5 46.5 24.5 46.5 26.5C46.5 28.5 43.5 28 41.5 27.5Z" fill="white" stroke="black"/>
</svg>
