<svg width="94" height="82" viewBox="0 0 94 82" fill="none" xmlns="http://www.w3.org/2000/svg">
<path d="M77.25 41.5C74.6667 48.3333 67.6 62.4 60 64C50.5 66 35 73 21 67.5C7 62 3 53.5 1.5 47.5C-4.76837e-07 41.5 3.5 33 11 35C17.017 36.6045 22.7123 39.321 25.5038 40.7314C22.683 37.8744 16.9315 29.9539 17.291 25.5C18.0273 22.5 20.6 15.7 25 12.5C31.3333 9.83333 45.5 3.9 51.5 1.5C59 -1.5 62.5 10.5 62.5 11.5C62.5 12.5 64 32.5 58.5 38.5C53 44.5 73 27 80 29C87 31 93.5 35.5 93.5 41.5C93.5 47.5 92.5 58.5 87.5 64C82.5 69.5 73.5 74.5 72 75C70.5 75.5 71 72.5 72 71C73 69.5 65.5 79.5 58.5 80.5C51.5 81.5 39 78.5 37 76C35.4 74 33.3333 71.8333 32.5 71C34.3333 70.6667 38.4 70.2 40 71C42 72 49.5 76.5 54 75C58.5 73.5 65.5 73 69.5 64C73.5 55 77.25 49.5 77.25 47.5V41.5Z" fill="white"/>
<path d="M80 41.5H77.25M74.5 41.5H77.25M77.25 41.5C74.6667 48.3333 67.6 62.4 60 64C50.5 66 35 73 21 67.5C7 62 3 53.5 1.5 47.5C-5.06639e-07 41.5 3.5 33 11 35C18.5 37 25.5 40.7276 27 41.5C27.472 43.8599 16.8053 31.5168 17.291 25.5M77.25 41.5C77.25 42.8333 77.25 45.9 77.25 47.5C77.25 49.5 73.5 55 69.5 64C65.5 73 58.5 73.5 54 75C49.5 76.5 42 72 40 71C38.4 70.2 34.3333 70.6667 32.5 71C33.3333 71.8333 35.4 74 37 76C39 78.5 51.5 81.5 58.5 80.5C65.5 79.5 73 69.5 72 71C71 72.5 70.5 75.5 72 75C73.5 74.5 82.5 69.5 87.5 64C92.5 58.5 93.5 47.5 93.5 41.5C93.5 35.5 87 31 80 29C73 27 53 44.5 58.5 38.5C64 32.5 62.5 12.5 62.5 11.5C62.5 10.5 59 -1.5 51.5 1.5C45.5 3.9 31.3333 9.83333 25 12.5C20.6 15.7 18.0273 22.5 17.291 25.5M17.5 24.5C17.388 24.8081 17.3198 25.1429 17.291 25.5" stroke="black"/>
</svg>
