<svg width="329" height="454" viewBox="0 0 329 454" fill="none" xmlns="http://www.w3.org/2000/svg">
<g clip-path="url(#clip0_1737_272)">
<path fill-rule="evenodd" clip-rule="evenodd" d="M325.507 382.9C319.244 298.035 252.057 233.733 175.238 239.195C98.4197 244.656 41.0057 317.817 46.8116 402.714L325.507 382.9Z" fill="#975656"/>
<path d="M86.8996 238.921C86.9139 242.105 86.5785 245.281 85.8996 248.391C84.6454 254.021 82.2642 259.337 78.8996 264.021C77.7632 265.589 76.5273 267.082 75.1995 268.491C68.2631 275.843 58.9439 280.495 48.8996 281.621C47.2598 281.811 45.6103 281.904 43.9595 281.901C38.5742 281.9 33.2375 280.882 28.2295 278.901C26.7955 278.342 25.3934 277.705 24.0296 276.991C14.3088 271.894 6.90104 263.277 3.31956 252.901C2.79748 251.416 2.36667 249.9 2.02956 248.361C1.75956 247.181 1.54956 245.981 1.37956 244.771C1.11496 242.822 0.981307 240.858 0.979537 238.891C0.973376 234.635 1.6037 230.401 2.84956 226.331C3.08956 225.511 3.36954 224.701 3.66954 223.891C6.42354 216.51 11.1527 210.026 17.3408 205.15C23.5288 200.273 30.9378 197.19 38.7588 196.237C46.5798 195.285 54.5121 196.499 61.6897 199.749C68.8673 202.998 75.0144 208.156 79.4595 214.661C84.3377 221.809 86.932 230.268 86.8996 238.921Z" fill="#EEEFF0"/>
<path d="M83.55 269.809C115.08 269.809 140.64 234.327 140.64 190.559C140.64 146.79 115.08 111.309 83.55 111.309C52.02 111.309 26.46 146.79 26.46 190.559C26.46 234.327 52.02 269.809 83.55 269.809Z" fill="#FF0000"/>
<path opacity="0.1" d="M83.55 269.809C115.08 269.809 140.64 234.327 140.64 190.559C140.64 146.79 115.08 111.309 83.55 111.309C52.02 111.309 26.46 146.79 26.46 190.559C26.46 234.327 52.02 269.809 83.55 269.809Z" fill="black"/>
<path d="M180.549 5.58187e-07C157.67 0.000144538 135.272 6.56536 116.013 18.9163C96.754 31.2671 81.4435 48.8849 71.8992 69.6781C62.355 90.4713 58.9777 113.567 62.1683 136.222C65.3589 158.877 74.9834 180.142 89.8993 197.49C92.2093 200.19 94.6494 202.78 97.1994 205.22C110.774 218.471 127.316 228.29 145.449 233.86C148.449 234.79 151.549 235.61 154.659 236.28C170.562 239.788 187.012 240.026 203.009 236.98C206.189 236.39 209.349 235.66 212.439 234.79C231.238 229.595 248.472 219.864 262.629 206.45C265.396 203.843 268.033 201.107 270.539 198.24C285.658 180.955 295.478 159.68 298.825 136.961C302.171 114.241 298.903 91.039 289.411 70.1282C279.918 49.2174 264.604 31.4833 245.298 19.0468C225.993 6.61032 203.514 -0.00221823 180.549 5.58187e-07ZM180.549 22.84C178.955 22.84 177.397 22.3673 176.071 21.4816C174.746 20.596 173.713 19.3372 173.103 17.8644C172.493 16.3917 172.333 14.7711 172.644 13.2076C172.955 11.6441 173.723 10.2079 174.85 9.08072C175.977 7.95351 177.413 7.18587 178.977 6.87487C180.54 6.56387 182.161 6.72349 183.634 7.33353C185.107 7.94358 186.365 8.97664 187.251 10.3021C188.137 11.6276 188.609 13.1859 188.609 14.78C188.609 16.9176 187.76 18.9677 186.249 20.4793C184.737 21.9908 182.687 22.84 180.549 22.84Z" fill="#FF0000"/>
<path d="M288.39 269.818C310.647 269.818 328.69 242.154 328.69 208.028C328.69 173.903 310.647 146.238 288.39 146.238C266.133 146.238 248.09 173.903 248.09 208.028C248.09 242.154 266.133 269.818 288.39 269.818Z" fill="#975656"/>
<path opacity="0.1" d="M288.39 240.978C300.259 240.978 309.88 226.226 309.88 208.028C309.88 189.83 300.259 175.078 288.39 175.078C276.522 175.078 266.9 189.83 266.9 208.028C266.9 226.226 276.522 240.978 288.39 240.978Z" fill="black"/>
<path d="M73.4699 269.818C95.727 269.818 113.77 242.154 113.77 208.028C113.77 173.903 95.727 146.238 73.4699 146.238C51.2128 146.238 33.1699 173.903 33.1699 208.028C33.1699 242.154 51.2128 269.818 73.4699 269.818Z" fill="#975656"/>
<path opacity="0.1" d="M73.4705 240.978C85.3391 240.978 94.9604 226.226 94.9604 208.028C94.9604 189.83 85.3391 175.078 73.4705 175.078C61.6019 175.078 51.9805 189.83 51.9805 208.028C51.9805 226.226 61.6019 240.978 73.4705 240.978Z" fill="black"/>
<path opacity="0.1" d="M89.5204 196.978L90.9205 46.8281L82.2305 189.248L89.5204 196.978Z" fill="black"/>
<path opacity="0.1" d="M148.68 46.8281L146.99 227.998C143.88 227.328 140.8 226.508 137.78 225.578L148.68 46.8281Z" fill="black"/>
<path opacity="0.1" d="M206.44 46.8281L204.77 226.548C201.68 227.418 198.52 228.148 195.34 228.738L206.44 46.8281Z" fill="black"/>
<path opacity="0.1" d="M262.87 189.998L264.2 46.8281L254.96 198.208L262.87 189.998Z" fill="black"/>
<path opacity="0.1" d="M288.48 116.68H73.3799C66.7525 116.68 61.3799 122.052 61.3799 128.68V182.59C61.3799 189.217 66.7525 194.59 73.3799 194.59H288.48C295.107 194.59 300.48 189.217 300.48 182.59V128.68C300.48 122.052 295.107 116.68 288.48 116.68Z" fill="black"/>
<path d="M291.08 229.519C291.049 257.39 280.439 284.209 261.395 304.558C242.351 324.908 216.293 337.269 188.485 339.145C160.678 341.022 133.196 332.272 111.591 314.666C89.9856 297.06 75.8694 271.908 72.0942 244.295C68.3191 216.681 75.1664 188.664 91.2527 165.905C107.339 143.145 131.465 127.341 158.755 121.684C186.046 116.028 214.466 120.941 238.273 135.432C262.08 149.923 279.499 172.91 287.01 199.749C289.72 209.44 291.09 219.457 291.08 229.519Z" fill="#975656"/>
<path opacity="0.1" d="M287.01 199.749C286.138 199.893 285.255 199.967 284.37 199.969H77.5103C76.6225 199.967 75.7363 199.893 74.8604 199.749C80.2394 180.63 90.6821 163.319 105.086 149.644C119.489 135.969 137.318 126.439 156.69 122.059H205.18C224.552 126.439 242.382 135.969 256.785 149.644C271.189 163.319 281.631 180.63 287.01 199.749Z" fill="black"/>
<path d="M284.36 119.371H77.4999C68.597 119.371 61.3799 126.588 61.3799 135.491V181.161C61.3799 190.064 68.597 197.281 77.4999 197.281H284.36C293.263 197.281 300.48 190.064 300.48 181.161V135.491C300.48 126.588 293.263 119.371 284.36 119.371Z" fill="#EEEFF0"/>
<path opacity="0.1" d="M87.7998 189.22L90.9198 138.18L90.4498 189.22H87.7998Z" fill="black"/>
<path opacity="0.1" d="M148.21 189.22L148.68 138.18L145.56 189.22H148.21Z" fill="black"/>
<path opacity="0.1" d="M206.44 138.18L205.96 189.22H203.32L206.44 138.18Z" fill="black"/>
<path opacity="0.1" d="M261.08 189.22L264.2 138.18L263.73 189.22H261.08Z" fill="black"/>
<path opacity="0.1" d="M139.29 230.869C147.453 230.869 154.07 224.251 154.07 216.089C154.07 207.926 147.453 201.309 139.29 201.309C131.127 201.309 124.51 207.926 124.51 216.089C124.51 224.251 131.127 230.869 139.29 230.869Z" fill="black"/>
<path opacity="0.1" d="M227.95 230.869C236.113 230.869 242.73 224.251 242.73 216.089C242.73 207.926 236.113 201.309 227.95 201.309C219.787 201.309 213.17 207.926 213.17 216.089C213.17 224.251 219.787 230.869 227.95 230.869Z" fill="black"/>
<path opacity="0.1" d="M183.62 304.738C208.103 304.738 227.95 284.891 227.95 260.408C227.95 235.925 208.103 216.078 183.62 216.078C159.137 216.078 139.29 235.925 139.29 260.408C139.29 284.891 159.137 304.738 183.62 304.738Z" fill="black"/>
<g filter="url(#filter0_d_1737_272)">
<path d="M110.41 445.781C125.62 445.781 137.95 425.634 137.95 400.781C137.95 375.928 125.62 355.781 110.41 355.781C95.2002 355.781 82.8701 375.928 82.8701 400.781C82.8701 425.634 95.2002 445.781 110.41 445.781Z" fill="#975656"/>
</g>
<g filter="url(#filter1_d_1737_272)">
<path d="M262.2 429.66C277.41 429.66 289.74 409.513 289.74 384.66C289.74 359.807 277.41 339.66 262.2 339.66C246.99 339.66 234.66 359.807 234.66 384.66C234.66 409.513 246.99 429.66 262.2 429.66Z" fill="#975656"/>
</g>
</g>
<defs>
<filter id="filter0_d_1737_272" x="79.8701" y="355.781" width="63.0801" height="98" filterUnits="userSpaceOnUse" color-interpolation-filters="sRGB">
<feFlood flood-opacity="0" result="BackgroundImageFix"/>
<feColorMatrix in="SourceAlpha" type="matrix" values="0 0 0 0 0 0 0 0 0 0 0 0 0 0 0 0 0 0 127 0" result="hardAlpha"/>
<feOffset dx="1" dy="4"/>
<feGaussianBlur stdDeviation="2"/>
<feComposite in2="hardAlpha" operator="out"/>
<feColorMatrix type="matrix" values="0 0 0 0 0 0 0 0 0 0 0 0 0 0 0 0 0 0 0.25 0"/>
<feBlend mode="normal" in2="BackgroundImageFix" result="effect1_dropShadow_1737_272"/>
<feBlend mode="normal" in="SourceGraphic" in2="effect1_dropShadow_1737_272" result="shape"/>
</filter>
<filter id="filter1_d_1737_272" x="231.66" y="339.66" width="63.0801" height="98" filterUnits="userSpaceOnUse" color-interpolation-filters="sRGB">
<feFlood flood-opacity="0" result="BackgroundImageFix"/>
<feColorMatrix in="SourceAlpha" type="matrix" values="0 0 0 0 0 0 0 0 0 0 0 0 0 0 0 0 0 0 127 0" result="hardAlpha"/>
<feOffset dx="1" dy="4"/>
<feGaussianBlur stdDeviation="2"/>
<feComposite in2="hardAlpha" operator="out"/>
<feColorMatrix type="matrix" values="0 0 0 0 0 0 0 0 0 0 0 0 0 0 0 0 0 0 0.25 0"/>
<feBlend mode="normal" in2="BackgroundImageFix" result="effect1_dropShadow_1737_272"/>
<feBlend mode="normal" in="SourceGraphic" in2="effect1_dropShadow_1737_272" result="shape"/>
</filter>
<clipPath id="clip0_1737_272">
<rect width="329" height="454" fill="white"/>
</clipPath>
</defs>
</svg>
