<svg width="58" height="41" viewBox="0 0 58 41" fill="none" xmlns="http://www.w3.org/2000/svg">
<path d="M6.2037 36.168C2.2037 35.4067 1.2037 29.8242 1.2037 27.1281C0.87037 26.8109 0.703704 25.7959 2.7037 24.2734C2.7037 16.6609 8.2037 1.43595 23.2037 6.66955C37.2037 -1.41873 50.7037 0.960174 55.2037 2.8633C59.7037 4.76642 57.2037 12.8547 50.7037 12.3789C44.2037 11.9031 39.2037 14.7578 37.7037 17.6125C36.2037 20.4672 39.2037 21.4188 32.2037 33.7891C27.3042 42.4473 18.9755 40.6169 12.7037 38.4124C12.6563 38.3978 12.6093 38.3812 12.5628 38.3628C9.93419 37.4321 7.67781 36.4485 6.2037 36.168Z" fill="white"/>
<path d="M22.2037 30.4586C19.7037 29.6656 15.0037 27.033 16.2037 22.8461C17.7037 17.6125 9.2037 19.9914 8.7037 22.8461C8.2037 25.7008 9.2037 37.3314 12.7037 38.4124M12.7037 38.4124C10.0149 37.4673 7.70408 36.4535 6.2037 36.168C2.2037 35.4067 1.2037 29.8242 1.2037 27.1281C0.87037 26.8109 0.703704 25.7959 2.7037 24.2734C2.7037 16.6609 8.2037 1.43595 23.2037 6.66955C37.2037 -1.41873 50.7037 0.960174 55.2037 2.8633C59.7037 4.76642 57.2037 12.8547 50.7037 12.3789C44.2037 11.9031 39.2037 14.7578 37.7037 17.6125C36.2037 20.4672 39.2037 21.4188 32.2037 33.7891C27.3042 42.4474 18.9755 40.6169 12.7037 38.4124Z" stroke="black"/>
<path d="M16 23.3047C17.5 22.8289 20.7 21.5919 21.5 20.45C22.5 19.0226 34 24.732 34 26.1594" stroke="black"/>
<path d="M22.5 19.0226C21.8333 17.1195 21.1 13.3133 23.5 13.3133C26.5 13.3133 35.5 16.168 36 17.5953C36.5 19.0226 35.5 24.732 35 25.2078" stroke="black"/>
<path d="M23 7.6039V12.3617M12 14.2648V19.0226" stroke="black"/>
</svg>
