<svg width="136" height="138" viewBox="0 0 136 138" fill="none" xmlns="http://www.w3.org/2000/svg">
<ellipse cx="56.5" cy="69" rx="41.5" ry="41" fill="black"/>
<circle cx="74" cy="20" r="20" fill="black"/>
<path d="M29.5 129C30 116.5 45.5 103 55.5 95.5L78.5 98.5C80.6667 103.5 83.7 116.1 78.5 126.5C72 139.5 29 141.5 29.5 129Z" fill="black" stroke="black"/>
<path d="M106.5 84.7718C103.3 95.4293 80.1667 109.195 69 114.746C65 118.394 62.2 123.5 83 114.746C109 103.803 119 87.1508 119 81.9172C119 76.6836 110.5 71.45 106.5 84.7718Z" fill="black" stroke="black"/>
<ellipse cx="113" cy="62.8859" rx="23" ry="21.8859" fill="black"/>
<path d="M1.5 85.5C5.9 100.7 30 114.5 41.5 119.5C44.1667 117.167 47.9 112 41.5 110C33.5 107.5 -4 66.5 1.5 85.5Z" fill="black" stroke="black"/>
<path d="M62.5 45.5C58.5 44 43.5 38.5 36 41C28.5 43.5 20.5 43.5 16.5 39" stroke="black" stroke-width="2"/>
<path d="M20 33.5C21.6667 35.8333 25.6 40.7 28 41.5" stroke="black" stroke-width="2"/>
<path d="M25.5 27.5C26.1667 31.1667 28.3 38.9 31.5 40.5M37 25L39 35M46 23C46 25.5 46 30.7 46 31.5M53 23L54.5 31.5" stroke="black" stroke-width="2"/>
<path d="M68 35.5C68.5 25 65.5 24.5 62.5 20.5C64.3333 20.5 69.5 21 75.5 23C83 25.5 97.5 37 105 40C98.5 21.5 77 20.5 78.5 19C80 17.5 84.5 19 92.5 20.5C100.5 22 118.5 42.5 108.5 43.5C98.5 44.5 92.5 58.5 90.5 60.5C88.5 62.5 85.5 60 80 58.5C74.5 57 67.5 46 68 35.5Z" fill="#ED2430" stroke="black"/>
</svg>
