<svg width="213" height="304" viewBox="0 0 213 304" fill="none" xmlns="http://www.w3.org/2000/svg">
<path d="M203.468 101.738C207.633 102.837 211.577 101.579 212.276 98.9275C212.975 96.2762 210.165 93.2368 205.998 92.1379C204.339 91.6761 202.594 91.6182 200.908 91.9691L183.199 87.5352L181.295 95.8901L198.955 99.3741C200.249 100.511 201.796 101.322 203.468 101.738Z" fill="#FFB6B6"/>
<path d="M106.132 61.0597C106.132 61.0597 102.535 67.963 107.52 71.3679C112.506 74.7728 154.023 90.5537 154.023 90.5537L195.253 99.5265L196.741 89.5065L159.203 77.5139L127.899 56.4609L106.132 61.0597Z" fill="#2F2E41"/>
<path d="M155.227 283.87L162.22 280.725L151.21 247.816L140.891 252.457L155.227 283.87Z" fill="#FFB6B6"/>
<path d="M185.853 286.946C186.412 288.114 186.037 289.458 185.014 289.947L171.289 296.514C171.289 296.514 167.341 291.731 160.716 292.03L164.052 299.977L156.972 303.365L151.855 290.468C151.855 290.468 146.764 284.694 149.064 279.397C151.363 274.1 148.405 276.099 148.405 276.099L146.254 267.631L157.555 263.77L163.438 275.864L174.392 285.421L183.808 285.539C184.646 285.55 185.45 286.103 185.853 286.946Z" fill="#2F2E41"/>
<path d="M16.8594 266.879L23.1081 271.322L45.9368 245.187L36.7157 238.629L16.8594 266.879Z" fill="#FFB6B6"/>
<path d="M29.6885 294.857C28.9632 295.93 27.6139 296.285 26.6748 295.65L14.0705 287.128C14.0705 287.128 16.2014 281.303 12.595 275.738L7.42399 282.634L0.921875 278.237L9.46321 267.303C9.46321 267.303 11.872 259.992 17.6047 259.298C23.3374 258.604 20.1164 257.062 20.1164 257.062L26.3363 250.926L35.3805 258.725L27.9196 269.915L25.2105 284.197L29.8684 292.381C30.283 293.109 30.2123 294.083 29.6885 294.857Z" fill="#2F2E41"/>
<path d="M127.488 16.3203H94.6543V61.4122H127.488V16.3203Z" fill="#2F2E41"/>
<path d="M120.114 42.0931L102.286 36.793L98.9135 45.9477L98.4316 101.84C98.4316 101.84 123.969 96.0581 129.751 105.695L131.678 88.3488C131.678 88.3488 137.942 79.6759 132.642 68.5938C127.341 57.5117 122.345 52.5151 122.345 52.5151L118.187 50.2842L120.114 42.0931Z" fill="#005FFF"/>
<path d="M99.6357 93.4102L97.2266 117.984L129.027 124.729C129.027 124.729 126.618 103.529 129.509 98.7103L99.6357 93.4102Z" fill="#005FFF"/>
<path d="M130.956 124.247C130.956 124.247 110.719 109.31 93.373 115.092C93.373 115.092 72.8952 127.861 83.4954 150.025L67.3541 188.33L31.2168 238.923L41.3352 250.968L89.0365 201.34L104.455 180.139L143.483 263.014L155.529 257.232L140.592 193.631L131.678 149.543L130.956 124.247Z" fill="#2F2E41"/>
<path d="M83.7361 152.672L59.6445 144.963L82.7724 80.8795L80.3633 46.6696L100.768 40.9141L112.164 91.4798L83.7361 152.672Z" fill="#2F2E41"/>
<path d="M121.013 53.8472L117.371 50.205L118.995 46.8477C118.995 46.8477 129.51 57.7531 131.437 60.644C133.364 63.535 151.362 136.146 151.362 136.146L124.21 147.374L129.51 90.3601L131.472 77.5364C131.762 75.6402 131.438 73.7008 130.546 72.0024L121.013 53.8472Z" fill="#2F2E41"/>
<path d="M112.151 37.5365C120.975 37.5365 128.128 30.3833 128.128 21.5593C128.128 12.7353 120.975 5.58203 112.151 5.58203C103.327 5.58203 96.1738 12.7353 96.1738 21.5593C96.1738 30.3833 103.327 37.5365 112.151 37.5365Z" fill="#FFB6B6"/>
<path d="M122.089 15.0281C116.607 11.3723 106.796 26.0135 103.796 17.0135C103.328 15.6102 102.228 21.8187 101.825 23.9909C101.314 26.7496 102.607 28.953 101.825 29.4466C100.941 30.0044 98.7752 27.5142 98.3177 27.8878C97.8706 28.253 99.3078 31.1469 101.825 34.5126C105.166 38.9798 107.26 40.0671 110.008 43.0857C112.567 45.8961 117.302 51.0959 116.633 55.5558C115.375 63.9441 94.8922 70.4269 88.5755 64.1289C87.063 62.621 86.7672 59.2062 86.2373 52.4382C85.4488 42.3662 86.0441 34.808 86.2373 32.5641C87.0416 23.2207 87.4438 18.5489 89.3548 14.6384C90.5752 12.1412 94.6848 3.73165 103.773 0.999295C113.536 -1.93579 125.156 2.84941 128.324 9.96214C129.239 12.0173 128.349 11.7982 129.493 18.5353C130.846 26.5086 131.722 31.2931 135.338 34.1229C138.66 36.7226 141.224 35.2694 142.353 37.2404C145.28 42.3526 131.696 58.5293 125.986 56.3351C122.545 55.0131 122.241 47.1287 122.478 43.4754C122.99 35.6079 126.889 33.938 126.765 26.7188C126.732 24.8087 126.616 18.0475 122.089 15.0281Z" fill="#2F2E41"/>
<path d="M52.4808 148.54C51.8025 152.794 53.4479 156.593 56.1556 157.024C58.8633 157.456 61.6075 154.356 62.2855 150.1C62.5797 148.404 62.4633 146.661 61.9461 145.019L64.5927 126.956L56.0897 125.895L54.3833 143.814C53.3809 145.215 52.7285 146.835 52.4808 148.54Z" fill="#FFB6B6"/>
<path d="M83.253 47.6346C83.253 47.6346 76.0255 44.7436 73.1346 50.0438C70.2436 55.3439 58.6796 98.2268 58.6796 98.2268L53.8613 140.146L63.9798 140.628L72.1709 102.081L89.9986 68.8352L83.253 47.6346Z" fill="#2F2E41"/>
</svg>
