<svg width="31" height="31" viewBox="0 0 31 31" fill="none" xmlns="http://www.w3.org/2000/svg">
<path d="M15.2898 30.5209C23.4525 30.5209 30.0698 23.9037 30.0698 15.7409C30.0698 7.57817 23.4525 0.960938 15.2898 0.960938C7.127 0.960938 0.509766 7.57817 0.509766 15.7409C0.509766 23.9037 7.127 30.5209 15.2898 30.5209Z" fill="#EEEFF0"/>
<path d="M15.2903 22.4595C19.0017 22.4595 22.0103 19.4509 22.0103 15.7395C22.0103 12.0282 19.0017 9.01953 15.2903 9.01953C11.579 9.01953 8.57031 12.0282 8.57031 15.7395C8.57031 19.4509 11.579 22.4595 15.2903 22.4595Z" fill="#373E46"/>
<path d="M16.63 14.3987C17.3701 14.3987 17.97 13.7988 17.97 13.0587C17.97 12.3187 17.3701 11.7188 16.63 11.7188C15.89 11.7188 15.29 12.3187 15.29 13.0587C15.29 13.7988 15.89 14.3987 16.63 14.3987Z" fill="white"/>
</svg>
