<svg xmlns="http://www.w3.org/2000/svg" width="581.42601" height="453.24935" viewBox="0 0 581.42601 453.24935" xmlns:xlink="http://www.w3.org/1999/xlink"><path d="M151.15866,85.77898c0,2.26403,.59622,4.52806,1.78751,6.59146,2.38259,4.12679,6.65074,6.59146,11.41706,6.59146h69.31403c4.76632,0,9.03447-2.46467,11.41706-6.59146,1.1913-2.06339,1.78751-4.32742,1.78751-6.59146s-.59622-4.52806-1.78751-6.59146l-34.65702-60.02763c-2.38259-4.12679-6.65074-6.59146-11.41706-6.59146-4.76518,0-9.03333,2.46467-11.41706,6.59146l-34.65702,60.02763c-1.1913,2.06339-1.78751,4.32742-1.78751,6.59146Z" fill="#f2f2f2"/><path d="M276.88184,134.98518c0,1.2772,.33634,2.5544,1.00838,3.71842,1.34408,2.32803,3.75186,3.71842,6.44067,3.71842h39.1019c2.68881,0,5.09658-1.39039,6.44067-3.71842,.67204-1.16401,1.00838-2.44122,1.00838-3.71842s-.33634-2.5544-1.00838-3.71842l-19.55095-33.86319c-1.34408-2.32803-3.75186-3.71842-6.44067-3.71842-2.68817,0-5.09594,1.39039-6.44067,3.71842l-19.55095,33.86319c-.67204,1.16401-1.00838,2.44122-1.00838,3.71842Z" fill="#f2f2f2"/><path d="M23.88184,133.98518c0,1.2772,.33634,2.5544,1.00838,3.71842,1.34408,2.32803,3.75186,3.71842,6.44067,3.71842h39.1019c2.68881,0,5.09658-1.39039,6.44067-3.71842,.67204-1.16401,1.00838-2.44122,1.00838-3.71842s-.33634-2.5544-1.00838-3.71842l-19.55095-33.86319c-1.34408-2.32803-3.75186-3.71842-6.44067-3.71842-2.68817,0-5.09594,1.39039-6.44067,3.71842l-19.55095,33.86319c-.67204,1.16401-1.00838,2.44122-1.00838,3.71842Z" fill="#3f3d56"/><path d="M489.88184,97.98518c0,1.25834,.32648,2.51669,.97884,3.66678,1.35801,2.39416,4.00295,3.77006,6.75544,3.77006h16.53144c2.75249,0,5.39743-1.3759,6.75544-3.77006,.65236-1.1501,.97884-2.40844,.97884-3.66678,0-1.2772-.33634-2.5544-1.00838-3.71842l-8.38396-22.57398c-1.3867-2.40183-3.91421-4.03563-6.68745-4.00721-2.65597,.02722-5.02947,1.41303-6.36087,3.718l-8.55095,22.86319c-.67204,1.16401-1.00838,2.44122-1.00838,3.71842Z" fill="#3f3d56"/><path d="M322.43262,142.42201h-39.10156c-2.96631,0-5.65088-1.00684-7.18115-2.69336-.82959-.91357-1.26807-1.96387-1.26807-3.03711,0-1.07275,.43848-2.12305,1.26758-3.03711l19.55176-21.53906c1.53125-1.68652,4.21533-2.69336,7.18066-2.69336,2.96631,0,5.65088,1.00684,7.18115,2.69336l19.55078,21.53906c.82959,.91406,1.26807,1.96436,1.26807,3.03711,0,1.07324-.43848,2.12354-1.26807,3.03711-1.53027,1.68652-4.21484,2.69336-7.18115,2.69336Zm-19.55078-31c-2.41064,0-4.5415,.76172-5.7002,2.0376-3.04333,9.15143-9.43704,16.40097-19.55127,21.53857-.49658,.54785-.74854,1.11768-.74854,1.69336,0,.57617,.25195,1.14551,.74854,1.69336,1.1582,1.27539,3.28906,2.03711,5.70068,2.03711h39.10156c2.41162,0,4.54248-.76172,5.70068-2.03711,.49658-.54785,.74854-1.11719,.74854-1.69336,0-.57568-.25195-1.14551-.74902-1.69336l-19.55078-21.53906c-1.15771-1.27539-3.28857-2.03711-5.7002-2.03711Z" fill="#3f3d56"/><path d="M209.03902,99.08826c-2.92643,0-5.8295-.87594-8.37595-2.60531l-57.34718-38.93255c-4.47318-3.03636-6.90884-8.06868-6.51674-13.46107,.19302-2.64167,1.0655-5.17427,2.52568-7.32431,1.45846-2.1483,3.48991-3.89499,5.8745-5.04963L207.59008,1.51799c4.86614-2.35776,10.44376-1.94922,14.9152,1.088,4.47404,3.03722,6.91057,8.06955,6.51674,13.46107l-5.04271,69.13081c-.19302,2.64253-1.0655,5.17514-2.52482,7.32344-1.46019,2.15003-3.49164,3.89672-5.87537,5.04963-2.09637,1.01529-4.32517,1.51731-6.54011,1.51731ZM214.12414,3.55204c-1.68956,0-3.3895,.38257-4.98991,1.15724-15.15187,15.22247-30.86831,29.92913-62.38989,30.19653-1.82545,.88459-3.37739,2.21581-4.48702,3.84998-1.10964,1.63589-1.77438,3.56954-1.92153,5.59147-.30035,4.11397,1.55799,7.95356,4.97087,10.27065l57.34718,38.93255c3.41287,2.31622,7.66447,2.62609,11.38115,.83006,1.82372-.88373,3.37565-2.21495,4.48702-3.85084,1.10964-1.63416,1.77352-3.56694,1.92066-5.58974l5.04271-69.13081c.30121-4.11397-1.55799-7.9527-4.97087-10.27065-1.9423-1.31824-4.15725-1.98644-6.39037-1.98644Z" fill="#3f3d56"/><rect y="140.42201" width="530.88184" height="2" fill="#3f3d56"/><path d="M112.46094,65.18721c-24.18176,6.93756-34.9162,28.59912-35.02441,28.8222l1.80029,.87158c.10394-.21454,10.38397-20.9137,33.47308-27.68884l-1.77618,8.79144c3.76007-4.40997,10.20111-9.00366,15.50873-11.92395-5.92761-1.2467-13.427-3.76617-18.30811-6.89044l4.3266,8.01801Z" fill="#6c63ff"/><path d="M245.21338,44.8061l-.51807,1.93164c.23022,.06171,22.49036,6.276,33.47632,27.68427l-8.96851-.09546c5.03705,2.86609,10.75745,8.33105,14.62158,12.99658,.11261-6.05627,1.18048-13.89514,3.33362-19.2757l-7.06378,5.75372c-11.35089-22.45044-34.64136-28.93115-34.88116-28.99506Z" fill="#6c63ff"/><path d="M376.8371,70.76954c-5.30267-2.92792-11.73541-7.53314-15.48761-11.94983l1.78876,8.93323c-25.14618-.45117-41.7605,17.12073-41.92926,17.30188l1.46631,1.36035c.16187-.17419,16.04462-16.94489,40.11353-16.67126l-4.27246,7.88507c4.88666-3.11548,12.39062-5.62146,18.32074-6.85944Z" fill="#6c63ff"/><g><g><polygon points="390.97722 434.20363 382.65458 434.13348 378.97035 401.28305 391.2538 401.38659 390.97722 434.20363" fill="#a0616a"/><path d="M394.73604,451.04166l-1.54843-20.67264-2.17318-.14491-8.86493-.60667-2.85231-.19018-.05433,5.94917-13.29281,9.01885c-1.00515,.68819-1.62089,1.82908-1.62995,3.04248-.01807,1.69329,1.11381,3.14208,2.66219,3.60389,.32602,.09965,.67012,.15398,1.03229,.15398l16.5436,.13579,.14486-.28977,2.75277-5.57789,1.0051,5.57789,.05433,.32602,6.24795,.05433-.02714-.38035Z" fill="#2f2e41"/></g><g><polygon points="510.36082 429.00906 502.29654 431.06787 490.34053 400.2494 502.24265 397.21079 510.36082 429.00906" fill="#a0616a"/><path d="M518.29739,444.32763l-6.7794-19.5907-2.13806,.4152-8.72566,1.67868-2.80621,.54497,1.46764,5.76556-10.54698,12.11609c-.79593,.92219-1.0997,2.18254-.79841,3.35797,.4152,1.6417,1.87971,2.75316,3.49469,2.804,.34066,.01303,.68722-.02237,1.03736-.11491l16.02909-4.09601,.066-.31716,1.2361-6.09612,2.39702,5.13589,.13583,.30132,6.05442-1.54398-.12342-.36079Z" fill="#2f2e41"/></g><path d="M400.13612,159.01847l49.12796,8.5576v7.654s3.3752-.46066,3.3752,1.78948v3.95103l2.73146,2.73146s26.5203,31.56981,22.02003,69.07207l3.75023,32.25194,3.75023,6.75041-1.50009,7.50045s5.25032,5.25032,5.25032,6.00036c0,.75005-1.50009,7.50045-1.50009,7.50045,0,0,7.50045,3.00018,6.75041,3.75023s.75005,5.25032,.75005,5.25032c0,0,18.75113,54.75329,13.50081,92.25555l-12.75077,3.75023-43.50262-101.25609-25.50153-72.75438-21.50081,51.00307v9.8628l.75005,2.13792v1.50009l-2.25014,5.25032,1.50009,3.00018-3.00018,9.00054v11.25068s.49955,60.00361-10.00108,79.50478h-12.75077l-12.75077-115.50695,2.25014-12.00072,.75005-6.00036,3.75023-1.50009-3.75023-4.50027,12.75077-79.50478,18.00108-38.2523Z" fill="#2f2e41"/><path d="M412.10743,68.21069h26.57038l3.40178,11.27499,10.53536,4.17173c7.30299,2.89179,11.91778,10.15238,11.4358,17.99226l-.1608,2.6155,2.73365,16.00653s-3.24474,6.12021-4.86431,7.43258-7.93036,28.66835-7.93036,28.66835l12.0529,42.04937-16.24273-9.40173-54.75727-20.59827,.00397-10.90363,3.05693-7.94118,1.89786-1.89786-8.22018-15.05415-7.05909-44.11951,21.30496-7.3974,6.24114-12.89757Z" fill="#6c63ff"/><g><path d="M332.71996,111.3502l4.61388-34.39997,.06399,.01259c-.55462-1.57938-.52913-3.36503,.21811-5.00925,1.53703-3.3822,5.52473-4.87785,8.90682-3.34092,3.38209,1.53714,4.87785,5.52483,3.34092,8.90693-.70415,1.5493-1.92516,2.6964-3.36386,3.3438l-3.34594,25.17638,44.06854-16.77875s17.18756,9.27319,10.70986,11.70283c-4.2153,1.58108-50.09658,18.87509-58.48494,18.46969-4.17733-.2019-7.28339-3.93831-6.72739-8.08332Z" fill="#a0616a"/><path d="M397.69215,92.74888l5.77015,8.28644c-9.47505,6.81598-54.55533,23.14337-54.72731,21.10023-.17198-2.04314-2.41577-.18806-2.64527,.60051s-2.79272-.39128-2.77758,.53588-2.13654,.35488-3.21339,.50273c0,0-8.34977-2.83916-9.60855-7.56648s.26916-10.08705,.26916-10.08705l-1.87753-4.9915,20.85069-3.88737-3.86146,6.29003,42.25575-16.49897,9.56533,5.71556Z" fill="#6c63ff"/></g><g><path d="M491.11181,140.01431l18.67181-29.23193-.05696-.03168c1.80007-1.05792,3.11773-2.9441,3.30666-5.32024,.21121-2.65633-1.24817-5.25352-3.62879-6.45074-3.91328-1.96798-8.42336,.15872-9.55144,4.15351-.46211,1.63676-.27024,3.30001,.41014,4.72231l-13.68891,21.37415-18.33764-33.15208c-3.39439-6.13662-10.02977-9.90654-17.01898-9.33126-2.68495,.221-4.39672,1.08995-3.17743,3.26872,2.19722,3.92626,26.05813,46.72615,32.72197,51.82851,3.31854,2.54092,8.09976,1.69305,10.34957-1.82927Z" fill="#a0616a"/><path d="M453.52347,83.90005l-9.75002,2.60187c2.83433,11.31507,26.70751,52.86043,28.15691,51.41198,1.4494-1.44845,1.96513,1.41501,1.63154,2.16494s2.38394,1.5031,1.77423,2.20097,1.40173,1.64925,2.12823,2.45683c0,0,8.20453,3.21995,12.21512,.42399,4.01059-2.79596,6.30227-7.87244,6.30227-7.87244l4.65329-2.59839-13.40603-16.41889-1.11084,7.292-17.36923-32.03795c-2.67328-4.93093-7.47581-8.3492-13.01029-9.26026l-2.21519-.36466Z" fill="#6c63ff"/></g><circle cx="419.23004" cy="42.31024" r="20.8668" fill="#a0616a"/><path d="M391.84596,33.26004c-.22125-10.21104,4.21845-12.80648,10.70758-12.96871,13.39724-5.08202,16.09618-3.09326,20.01628-1.91164l1.5082-.14404c4.62866-.44206,9.0679,.49851,12.90529,2.48714,8.0949,4.18642,12.70925,12.93656,12.26652,22.0385-.30611,6.27454-2.83642,13.09487,.17968,18.57324,2.523,4.57424,5.18477,9.09045-.00941,9.58652l-13.59994,1.29885c-.97808-1.58597-1.71739-3.21446-2.53432-5.24224-.60973,1.65232-.88351,3.59407-.89815,5.57005-4.96885,1.788-10.20751,2.15468-15.64114,1.49379-.73779-1.2678-1.36904-2.65734-1.0942-4.10715-.47358,1.42947-1.01408,2.84557-1.25268,4.33128-3.16151-2.60303-6.06399-2.28749-8.71771,.83257-5.14649-5.39283-4.32378-16.27049,2.77006-18.18775,6.00141-1.62201-1.15824-18.74187-7.28561-19.79223-.03945-.00676-2.40949,6.00995-2.45416,5.88638-.66604-1.84212-.15627-2.74932-.97314-4.7771-.50978,1.3935-.7905,2.98819-.86932,4.63579-1.43128-.49307-2.86385-1.13694-4.29185-1.93868-1.464-2.56899-1.84673-5.12545-.732-7.66459Z" fill="#2f2e41"/></g><path d="M527.16713,435.91639c2.06592,.12937,3.20768-2.43737,1.64468-3.93333l-.1555-.61819c.02047-.04951,.04105-.09897,.06178-.14839,2.08924-4.9818,9.16992-4.94742,11.24139,.04177,1.83859,4.42817,4.17942,8.86389,4.75579,13.54594,.25838,2.0668,.14213,4.17236-.31648,6.20047,4.30807-9.41059,6.57515-19.68661,6.57515-30.02077,0-2.59652-.14213-5.19301-.43275-7.78295-.239-2.11854-.56839-4.2241-.99471-6.31034-2.30575-11.2772-7.29852-22.01825-14.50012-30.98962-3.46197-1.89248-6.34906-4.85065-8.09295-8.39652-.62649-1.27891-1.11739-2.65462-1.34991-4.05618,.39398,.05168,1.48556-5.94866,1.18841-6.3168,.54906-.83317,1.53178-1.24733,2.13144-2.06034,2.98232-4.04341,7.0912-3.33741,9.23621,2.15727,4.58224,2.31266,4.62659,6.14806,1.81495,9.83683-1.78878,2.34682-2.03456,5.52233-3.60408,8.03478,.16151,.20671,.32944,.40695,.4909,.61366,2.96106,3.79788,5.52208,7.88002,7.68104,12.16859-.61017-4.76621,.29067-10.50822,1.82641-14.20959,1.74819-4.21732,5.02491-7.76915,7.91045-11.41501,3.46601-4.37924,10.57337-2.46806,11.18401,3.08332,.00591,.05375,.01166,.10745,.01731,.1612-.4286,.24178-.84849,.49867-1.25864,.76992-2.33949,1.54723-1.53096,5.17386,1.24107,5.60174l.06277,.00967c-.15503,1.54366-.41984,3.07444-.80734,4.57937,3.70179,14.31579-4.29011,19.5299-15.70147,19.76412-.25191,.12916-.49738,.25832-.74929,.38109,1.15617,3.25525,2.07982,6.59447,2.76441,9.97891,.61359,2.99043,1.03991,6.01317,1.27885,9.04888,.29715,3.83006,.27129,7.67959-.05168,11.50323l.01939-.13562c.82024-4.21115,3.10671-8.14462,6.4266-10.87028,4.94561-4.06264,11.93282-5.55869,17.26826-8.82425,2.56833-1.57196,5.85945,.45945,5.41121,3.43708l-.02182,.14261c-.79443,.32289-1.56947,.69755-2.31871,1.11733-.4286,.24184-.84848,.49867-1.25864,.76992-2.33949,1.54729-1.53096,5.17392,1.24107,5.6018l.06282,.00965c.0452,.00646,.08397,.01295,.12911,.01944-1.36282,3.23581-3.26168,6.23922-5.63854,8.82922-2.31463,12.49713-12.25603,13.68282-22.89022,10.04354h-.00648c-1.16259,5.06378-2.86128,10.01127-5.0444,14.72621h-18.02019c-.06463-.20022-.12274-.40692-.18089-.60717,1.6664,.10341,3.34571,.00649,4.98629-.29702-1.33701-1.64059-2.67396-3.29409-4.01097-4.93462-.03229-.0323-.05816-.0646-.08397-.09689-.67817-.8396-1.36282-1.67283-2.04099-2.51246l-.00036-.00102c-.04245-2.57755,.26652-5.14662,.87876-7.63984l.00057-.00035Z" fill="#f2f2f2"/><path d="M325.61578,452.05934c0,.66003,.53003,1.19,1.19006,1.19h253.28998c.65997,0,1.19-.52997,1.19-1.19,0-.65997-.53003-1.19-1.19-1.19h-253.28998c-.66003,0-1.19006,.53003-1.19006,1.19Z" fill="#ccc"/><circle cx="197.88184" cy="141.42201" r="12" fill="#ccc"/><circle cx="302.88184" cy="143.42201" r="12" fill="#ccc"/><circle cx="506.88184" cy="148.42201" r="12" fill="#ccc"/><circle cx="50.88184" cy="141.42201" r="12" fill="#ccc"/><path d="M55.27551,144.6385c-.48151-.00067-.9632-.00696-1.44489-.01324,.01605-.09192,.03345-.18433,.04706-.27509,.22076-1.47156,.32361-2.96204,.31262-4.44995-.0105-1.42169-.07703-2.95062-.54504-4.30524-.34216-.99042-1.28363-1.30353-2.20349-.89648-1.61932,.71667-3.01422,2.14471-4.2934,3.05823-.65833,.47009-.97357,1.3078-.53815,2.05225,.38062,.6507,1.38959,1.01141,2.05231,.53815,.89746-.64087,1.65607-1.32269,2.46643-1.93518,.02771,.36969,.04767,.73993,.05591,1.11029,.0285,1.27576-.02936,2.55786-.17535,3.82562-.00708,.06165-.04437,.32092-.03998,.29858-.01135,.07507-.02209,.15021-.03503,.2251-.04187,.24304-.09045,.48535-.15674,.72302l-.00684,.02161c-.70721,.01056-1.41425,.03149-2.12061,.08545-.74182,.05664-1.3811,.52673-1.47321,1.3006-.08618,.72455,.33887,1.45288,1.07446,1.64581,1.23798,.32465,2.65222,.59277,3.83685-.04102,1.06232,.00623,2.125,.02997,3.18707,.03149,.81061,.00122,1.5-.69025,1.5-1.5,0-.81445-.68646-1.49878-1.5-1.5Z" fill="#fff"/><g><path d="M199.23517,136.70253l-.00787-.00531c.01996,.01819,.03564,.03278,.04773,.04132-.01361-.01178-.02667-.02393-.03986-.03601Z" fill="#fff"/><path d="M202.54327,144.92201c-1.27057,.00458-2.53845,.09839-3.80865,.11932-.17554,.00287-.33575,.00116-.50226,.00165,.62561-.49695,1.25433-.98999,1.85596-1.51611,1.58551-1.38654,3.2962-3.30768,3.05365-5.578-.24396-2.28259-2.32385-4.69849-4.78815-4.45764-1.96582,.19214-3.59979,1.7323-4.16052,3.59607-.31232,1.03796-.20337,2.18866,.46912,3.05792,.7785,1.00641,2.06964,1.31915,3.29236,1.25806-.09399,.08209-.18207,.17078-.27728,.2514-.75769,.64197-1.55249,1.23785-2.31793,1.87024-.65436,.54065-1.32904,1.12976-1.75452,1.87677-.4826,.84717-.04095,1.93506,.89642,2.20349,2.61462,.74872,5.3703,.32642,8.04181,.31683,.81055-.00293,1.5-.68732,1.5-1.5,0-.81122-.68646-1.50293-1.5-1.5Zm-3.04083-5.06964l-.00031-.00275c.03564-.04974,.03339-.04187,.00031,.00275Zm-.5556-3.32159c-.07562-.03925-.14362-.08191,0,0h0Zm.09113,.03491c-.00262,.00677-.03333-.00616-.06824-.02338,.03833,.0116,.06903,.02136,.06824,.02338Zm-2.02924,1.70032l.00128,.00989-.00568-.0127,.00439,.00281Zm-.02039-.01294l.00897,.02649c-.03058-.03094-.05756-.05817-.05902-.05829,.02264,.00165,.03424,.01953,.05005,.0318Zm.01367,.04047l.0014,.00415c-.13385-.06592-.07513-.04529-.0014-.00415Zm.0072,.02112l.00092,.00275-.00092-.00275Zm.37946,.09216c-.01239-.00031-.02496-.00177-.03754-.00311-.06812-.01996-.14136-.03503-.21088-.04962,.02124,.01251,.04401,.02441,.05511,.04303-.00848-.01422-.04285-.03204-.07855-.04858l-.00397-.00092c-.02808-.00623-.02887-.00867-.04565-.01343,.02887,.02118,.04877,.04205,.04254,.05652-.00061,.0014-.03064-.02863-.06409-.06238,.026,.07684,.01556,.13995-.00708,.01392,0-.00586,.00024-.00995,.00012-.01642l-.00732-.0022-.00098-.0022-.00037-.00879-.00122-.00128,.00122-.00018-.00006-.00128-.00458-.00195-.00189-.00195-.00024-.00049,.00671,.00439-.00372-.03271c.00671,.01001,.00732,.02075,.01208,.03168-.00122-.06445-.00488-.14673-.00763-.20276,.00842-.04187,.01721-.08362,.02802-.12445,.01562-.05872,.08276-.23541,.10352-.29919,.04236-.07935,.08344-.15894,.12958-.23627,.03168-.05292,.13843-.20099,.17957-.26312,.06635-.07434,.15588-.17535,.19055-.20996,.06067-.06067,.12463-.11743,.18768-.17548,.05359-.04926,.21466-.23358,.047-.04388-.15381,.17401-.02246,.01776,.05627-.0293,.07245-.04327,.14294-.08893,.21729-.12903l.02734-.01123c-.04614,.00842-.05511-.00134,.07239-.03668l.02435-.00677c.02972-.01361,.06146-.02759,.06873-.04071-.00751,.01361-.02771,.02313-.04449,.03394l.1524-.0426c-.01581-.00262-.03418,.00024-.04651-.00775,.00372,.00238,.02979,.00391,.05475,.00543l.02954-.00824c.1972-.05554,.13812-.00861,.04797,.01111,.06238,.00128,.12793,.00134,.18707-.00012-.10016-.01782-.19293-.07117,.00189-.01385l.04443,.01245c.03271-.00153,.05988-.00342,.06378-.00623-.01306,.0094-.03674,.00726-.05786,.00793,.04755,.01337,.11462,.03247,.16821,.04858l.00818,.00464c.07343,.04211,.1463,.08435,.21899,.12781,.01727,.01031,.02289,.0155,.03595,.02411-.01599-.01453-.02948-.02533-.0495-.04657,.01746,.01849,.03839,.03448,.05737,.05188,.06842,.04614,.07654,.06183,.03986,.03601,.05255,.04541,.10498,.09082,.15375,.13898,.08655,.08539,.16431,.17755,.2475,.26593,.01318,.01404,.01917,.01947,.02783,.02802l.01654,.02692c.12091,.18713,.22205,.3833,.33636,.57281,.00464,.01227,.00958,.02441,.01312,.03693,.02521,.08966,.04852,.18225,.07642,.271,.00476,.0152,.00714,.01965,.01111,.03101,.0022,.09357,.01038,.18658,.00812,.28058l-.00299,.07062c-.0072,.04968-.01587,.11035-.02209,.13708-.02002,.08618-.0437,.17126-.07043,.25555-.01044,.03296-.02271,.06598-.03333,.09912-.17358,.30243-.34558,.59473-.53589,.88635-.03601-.75342-.70245-1.4837-1.49323-1.43713-.2074,.01221-.41174,.00958-.61914,.00452Z" fill="#fff"/><path d="M197.03833,138.30885l.00006,.00464-.00055-.00018,.00055,.00024,.00006,.00189-.00537-.00354-.00305-.00073v.00146l.00854,.00861,.00012,.00458,.00629,.00183,.00067,.00067-.00018-.00055,.02173,.00641-.02563-.01672-.00116-.00305c.02252,.00964,.04602,.01996,.07642,.03412l.02344,.00555c-.03455-.02026-.07025-.03467-.09998-.04004l-.00195-.00519Z" fill="#fff"/><path d="M198.55664,136.49189c-.03156-.00067-.05536-.00153-.07751-.00287l-.00824,.00232c.02985,.00494,.05573,.00708,.08575,.00055Z" fill="#fff"/><path d="M198.79596,136.49208l-.00592-.00171-.04633,.0014c.02002,.00354,.03369,.00092,.05225,.00031Z" fill="#fff"/><polygon points="197.03308 138.3119 197.03784 138.31331 197.03009 138.30995 197.03308 138.3119" fill="#fff"/><polygon points="197.02997 138.30989 197.02997 138.30989 197.03009 138.30995 197.02997 138.30989" fill="#fff"/><path d="M198.31848,136.53395l-.02423,.00677c-.03735,.01703-.06781,.03131-.09674,.04346,.0343-.00629,.08167-.02502,.12097-.05023Z" fill="#fff"/></g><path d="M308.14868,143.56874c-.0542-.0672-.12311-.12-.18073-.18402,.20099-.20197,.38196-.42975,.51385-.71521,.74091-1.60303-.11981-3.33508-1.20801-4.54462-2.03149-2.258-5.93268-2.79156-8.50336-1.20282-.66718,.41229-.98462,1.3598-.53815,2.05231,.4314,.66907,1.3382,.97943,2.05231,.53809,.1106-.06836,.224-.12939,.33685-.19348,.03296-.01874,.05054-.02979,.06787-.04077,.01636-.00531,.02606-.00793,.04974-.01624,.24951-.08746,.50098-.151,.75854-.20892,.03333-.00751,.05249-.0127,.06885-.01733,.01764-.00043,.03125-.00043,.05896-.00183,.13391-.00671,.26709-.01862,.40137-.02081,.23999-.00397,.4762,.0152,.71484,.03375,.05438,.00922,.1087,.01874,.16278,.02991,.13281,.02637,.26453,.05707,.39532,.0921,.21167,.0567,.42004,.12781,.62427,.20801,.05731,.02765,.17133,.07965,.20319,.09613,.11682,.06036,.23187,.12463,.34412,.19318,.11096,.06781,.21436,.14795,.32501,.2157-.28302-.17328-.03448-.02393,.03394,.03833,.16425,.14948,.31146,.31439,.45483,.48346,.01788,.0235,.03839,.05121,.05835,.08038,.07288,.10632,.1416,.21503,.20563,.3269,.01215,.02118,.07062,.13324,.10925,.20508,.02136,.05737,.06238,.15985,.06915,.18256,.01111,.03735,.01837,.07141,.02466,.10229-.03906,.01562-.07935,.03107-.10718,.03827-.0802,.02063-.16168,.0343-.24298,.04913-.03748,.00476-.10596,.01343-.17694,.01831-.23102,.01593-.46259,.01898-.69403,.01941-.74847,.00134-1.37506,.56982-1.47321,1.3006-.10406,.77441,.36383,1.38495,1.0744,1.64581,.00165,.00055,.0802,.0307,.14191,.05389,.05939,.02661,.15649,.06897,.17609,.07843,.19232,.09283,.3811,.19385,.56415,.30396,.11072,.06665,.2168,.13861,.32526,.20874l.04486,.02936c.14539,.117,.28638,.24078,.41449,.37628,.07367,.07788,.21582,.33289,.0611,.05524,.03485,.0625,.07837,.12909,.11975,.18756,.00977,.01379,.01416,.01758,.02161,.02704l.00067,.00366c.00159,.00659,.01007,.03357,.01947,.06409-.02423,.04553-.04944,.09076-.07843,.13367,.10797-.18616,.00928-.0116-.07281,.07306-.18616,.19189-.28241,.26239-.48132,.38361-.09906,.0603-.20215,.11627-.30695,.16675-.02802,.00769-.14246,.05115-.18713,.06433-.09247,.0274-.18622,.04749-.28033,.06726-.03583,.00397-.11481,.01404-.17206,.01593-.11841,.00397-.23505-.00232-.35345-.00464-.03143-.00061-.05286-.00055-.07001-.00024l-.02405-.0072c-.23425-.05859-.46802-.10352-.69873-.1781-.1167-.03778-.2312-.08075-.3465-.12238-.0506-.01825-.07019-.0249-.08502-.02991,.00793,.00189,.00781,0-.03772-.02094-.48163-.22174-.94684-.47382-1.40857-.73407-.68372-.38538-1.66986-.18573-2.05231,.53809-.37494,.70966-.19196,1.64075,.53815,2.05231,1.30212,.73395,2.66718,1.4126,4.18475,1.50244,1.63037,.09656,3.26318-.71313,4.25195-1.99292,.99573-1.28882,.79041-2.88092-.19232-4.09894Zm-2.3501-2.21918c.02258-.03253,.02148-.03601,.03259-.05475,.0238-.02948,.0296-.03485-.03259,.05475Zm.0509-.08557l.01031-.01733c.01221,.00189,.04266-.00842,.12598-.06061-.04547,.0285-.09137,.05243-.13629,.07794Zm.19702,4.58575c.00598,.02478,.0097,.04492,.00562,.04742l-.00562-.04742Z" fill="#fff"/><path d="M512.87158,147.6374c-.19-.58722-.74561-1.06799-1.36591-1.10486-.07758-.72321-.13397-1.44879-.13959-2.1814-.00604-.78442-.68561-1.5365-1.5-1.5-.80756,.03613-1.50647,.65918-1.5,1.5,.00616,.80518,.06812,1.59888,.15607,2.38641-.57111-.03424-1.14282-.07605-1.71381-.05542-.68604,.02478-1.36646,.13495-2.05103,.18127-.09778,.00659-.19501-.0014-.29236,.00195,.09534-.28387,.19073-.56769,.3042-.84515,.01904-.04205,.04547-.10077,.06799-.14832,.04297-.0907,.08759-.1806,.13391-.26965,.09943-.19116,.20642-.3786,.32495-.55872,.03979-.06049,.27228-.33978,.03064-.06207,.0719-.0827,.13971-.16693,.21594-.24597,.05487-.05695,.11407-.10876,.17224-.16205,.02258-.01672,.05121-.03699,.08942-.06097,.66394-.41705,.98682-1.35632,.53815-2.05225-.42877-.66504-1.34149-.98468-2.05231-.53815-1.94421,1.22137-2.60333,3.6441-3.20728,5.71814-.18616,.6394,.12421,1.3587,.68933,1.69397,1.51306,.89752,3.28412,.43768,4.92535,.35309,.74292-.03827,1.49359,.02356,2.24225,.06085,.21686,1.45404,.41437,2.90521,.41846,4.38251,.0022,.78455,.68835,1.53638,1.5,1.5,.81085-.03632,1.50232-.65912,1.5-1.5-.00439-1.59174-.22485-3.14099-.45648-4.68243,.70154-.2796,1.22003-1.03754,.96985-1.81079Zm-7.164-3.05902c-.05011,.0437-.05157,.0387,0,0h0Z" fill="#fff"/></svg>