<svg width="110" height="73" viewBox="0 0 110 73" fill="none" xmlns="http://www.w3.org/2000/svg">
<path d="M50.0817 65.2934C50.5313 62.9583 49.2888 60.9111 47.5115 60.5689C45.7341 60.2267 43.8203 61.6662 43.3708 64.0014C42.9212 66.3365 44.1637 68.3838 45.941 68.7259C47.7183 69.0681 49.6321 67.6286 50.0817 65.2934Z" fill="#D9D9D9" stroke="black"/>
<path d="M71.0817 65.9561C71.5313 63.6209 70.2888 61.5737 68.5115 61.2315C66.7341 60.8894 64.8203 62.3289 64.3708 64.664C63.9212 66.9992 65.1637 69.0464 66.941 69.3886C68.7183 69.7308 70.6321 68.2913 71.0817 65.9561Z" fill="#D9D9D9" stroke="black"/>
<path d="M91.8604 57.8066C92.1617 56.2416 90.9778 54.5991 89.0688 54.2315C87.1598 53.864 85.4508 54.9495 85.1494 56.5145C84.8481 58.0796 86.032 59.7221 87.941 60.0896C89.85 60.4571 91.559 59.3716 91.8604 57.8066Z" fill="#D9D9D9" stroke="black"/>
<path d="M50.5 13C34.5 15.8 27.1667 8.83333 25.5 5C24 6.33333 20.8 9.2 20 10C19 11 14.5 20.5 14.5 23.5C14.5 26.5 7 31.5 6.5 32.5C6 33.5 7.5 34.5 9 35.5C10.5 36.5 2.5 43 1.5 46C0.5 49 0.5 56.5 3.5 57C6.5 57.5 19 49.5 21 51.5C23 53.5 20.5 61 21 65C21.5 69 27.5 73 35 72C42.5 71 51.5 57.5 54 55.5C56.5 53.5 65 65 70.5 67.5C76 70 84.5 65 87 63.5C89.5 62 87.5 47.5 88.5 45C89.5 42.5 97 47 101 47.5C105 48 108 45.5 108.5 41.5C108.9 38.3 100.333 29.8333 96 26C97.3333 26.3333 100.2 26.5 101 24.5C95.5 23 89 14 88.5 13C88 12 77.5 -0.5 74.5 1C74.5 3.5 70.5 9.5 50.5 13Z" fill="#DB2029" stroke="black" stroke-opacity="0.2"/>
<circle cx="54" cy="42" r="7.5" fill="#D9D9D9" stroke="black"/>
<path d="M72.2825 21.3324C73.3617 25.3986 71.3352 29.3436 67.9241 30.249C64.513 31.1544 60.7968 28.7337 59.7175 24.6676C58.6383 20.6014 60.6648 16.6564 64.0759 15.751C67.487 14.8456 71.2032 17.2663 72.2825 21.3324Z" fill="#D9D9D9" stroke="black"/>
<path d="M44.6442 28.1329C42.7893 31.9088 38.6709 33.5545 35.5033 31.9984C32.3356 30.4423 31.1212 26.1767 32.9762 22.4008C34.8312 18.6249 38.9496 16.9791 42.1172 18.5353C45.2848 20.0914 46.4992 24.357 44.6442 28.1329Z" fill="#D9D9D9" stroke="black"/>
<path d="M39.2419 60.741C38.0103 64.8026 34.4068 67.1122 31.3238 66.1773C28.2407 65.2425 26.5266 61.3206 27.7581 57.259C28.9897 53.1974 32.5932 50.8879 35.6762 51.8227C38.7593 52.7575 40.4734 56.6794 39.2419 60.741Z" fill="#D9D9D9" stroke="black"/>
<path d="M82.4789 54.4771C82.8173 58.6704 80.1211 62.1918 76.6033 62.4757C73.0855 62.7596 69.8595 59.7162 69.5211 55.5229C69.1827 51.3296 71.8789 47.8082 75.3967 47.5243C78.9145 47.2404 82.1405 50.2838 82.4789 54.4771Z" fill="#D9D9D9" stroke="black"/>
<path d="M88.5 32C88.5 34.121 87.9081 36.0194 86.9771 37.3736C86.0445 38.73 84.8067 39.5 83.5 39.5C82.1933 39.5 80.9555 38.73 80.0229 37.3736C79.0919 36.0194 78.5 34.121 78.5 32C78.5 29.879 79.0919 27.9806 80.0229 26.6264C80.9555 25.27 82.1933 24.5 83.5 24.5C84.8067 24.5 86.0445 25.27 86.9771 26.6264C87.9081 27.9806 88.5 29.879 88.5 32Z" fill="#D9D9D9" stroke="black"/>
<path d="M28.9336 38.0155C29.053 40.1331 28.5688 42.0618 27.7155 43.4662C26.8608 44.873 25.6683 45.7114 24.3636 45.785C23.059 45.8585 21.7798 45.1594 20.7724 43.8576C19.7666 42.5579 19.0688 40.6959 18.9494 38.5783C18.8301 36.4606 19.3142 34.532 20.1675 33.1275C21.0223 31.7207 22.2148 30.8823 23.5194 30.8087C24.8241 30.7352 26.1032 31.4343 27.1107 32.7361C28.1164 34.0358 28.8142 35.8978 28.9336 38.0155Z" fill="#D9D9D9" stroke="black"/>
<path d="M101.571 35.9318C103.124 37.4401 104.285 39.0267 104.913 40.3578C105.229 41.0252 105.398 41.6033 105.433 42.0601C105.467 42.5177 105.363 42.7924 105.21 42.9502C105.057 43.1079 104.785 43.2196 104.327 43.1988C103.869 43.178 103.286 43.0254 102.61 42.7299C101.261 42.1404 99.641 41.0272 98.0877 39.5189C96.5344 38.0107 95.3741 36.424 94.7452 35.0929C94.43 34.4256 94.2603 33.8475 94.2261 33.3907C94.1918 32.9331 94.2955 32.6583 94.4486 32.5006C94.6018 32.3428 94.8734 32.2312 95.3318 32.252C95.7894 32.2727 96.3722 32.4254 97.0485 32.7209C98.3976 33.3103 100.018 34.4236 101.571 35.9318Z" fill="#D9D9D9" stroke="black"/>
<path d="M83.9888 11.9613C85.1773 13.771 85.9653 15.5719 86.2899 17.0078C86.4526 17.7277 86.4927 18.3289 86.4269 18.7822C86.3609 19.2363 86.2 19.4819 86.0162 19.6026C85.8325 19.7233 85.5431 19.7733 85.1002 19.6535C84.658 19.5338 84.1222 19.2581 83.5263 18.8228C82.3375 17.9544 80.998 16.5157 79.8095 14.7061C78.621 12.8964 77.833 11.0955 77.5084 9.65961C77.3457 8.93973 77.3056 8.33855 77.3714 7.88523C77.4374 7.43114 77.5983 7.18546 77.782 7.06477C77.9658 6.94407 78.2552 6.89405 78.6981 7.01393C79.1403 7.13361 79.676 7.40926 80.272 7.84462C81.4608 8.71303 82.8003 10.1517 83.9888 11.9613Z" fill="#D9D9D9" stroke="black"/>
<path d="M23.55 20.2348C22.9336 22.3102 22.0656 24.0739 21.1777 25.2481C20.7325 25.8368 20.2989 26.2552 19.91 26.4973C19.5205 26.7397 19.229 26.7753 19.0182 26.7127C18.8074 26.6501 18.5826 26.4612 18.3885 26.0454C18.1948 25.6303 18.0599 25.0431 18.0082 24.3068C17.9051 22.8383 18.1405 20.8867 18.7569 18.8113C19.3733 16.7358 20.2413 14.9721 21.1293 13.7979C21.5744 13.2092 22.008 12.7909 22.3969 12.5488C22.7865 12.3063 23.078 12.2708 23.2887 12.3334C23.4995 12.396 23.7244 12.5849 23.9184 13.0007C24.1122 13.4158 24.2471 14.003 24.2987 14.7392C24.4018 16.2078 24.1664 18.1593 23.55 20.2348Z" fill="#D9D9D9" stroke="black"/>
<path d="M10.9039 46.9105C9.71697 48.7212 8.37869 50.161 7.19071 51.0305C6.59513 51.4664 6.0596 51.7425 5.61754 51.8625C5.17473 51.9828 4.88532 51.933 4.70143 51.8125C4.51754 51.692 4.35646 51.4464 4.29009 50.9924C4.22385 50.5391 4.2634 49.9379 4.42552 49.2179C4.74888 47.7817 5.53528 45.9802 6.72219 44.1694C7.90911 42.3587 9.24738 40.9189 10.4354 40.0495C11.0309 39.6136 11.5665 39.3375 12.0085 39.2174C12.4513 39.0971 12.7408 39.1469 12.9246 39.2674C13.1085 39.388 13.2696 39.6335 13.336 40.0875C13.4022 40.5408 13.3627 41.142 13.2006 41.862C12.8772 43.2982 12.0908 45.0998 10.9039 46.9105Z" fill="#D9D9D9" stroke="black"/>
</svg>
